<svg xmlns="http://www.w3.org/2000/svg" width="16" height="16" fill="none" viewBox="0 0 16 16"><path fill="currentColor" fill-opacity=".3" d="M4.667 12.667a1.333 1.333 0 1 1 2.666 0 1.333 1.333 0 0 1-2.666 0Zm4.666 0a1.333 1.333 0 1 1 2.666 0 1.333 1.333 0 0 1-2.666 0ZM4.667 8a1.333 1.333 0 1 1 2.666 0 1.333 1.333 0 0 1-2.666 0Zm4.666 0A1.333 1.333 0 1 1 12 8a1.333 1.333 0 0 1-2.667 0ZM4.667 3.333A1.333 1.333 0 0 1 6 2l.131.007a1.333 1.333 0 1 1-1.464 1.326Zm4.666 0A1.333 1.333 0 0 1 10.667 2l.131.007a1.333 1.333 0 1 1-1.465 1.326Z"/></svg>