<svg xmlns="http://www.w3.org/2000/svg" width="16" height="16" fill="none" viewBox="0 0 16 16"><path fill="currentColor" d="M8 1.333a6.667 6.667 0 1 1 0 13.333A6.667 6.667 0 0 1 8 1.333ZM5.976 5.767l-.035.333-.02.222-.028.4-.016.307-.012.336-.007.366v.386l.007.366.012.337.016.307.028.4.047.486.009.068a.795.795 0 0 0 1.1.636l.304-.134.434-.206.26-.131.287-.15.31-.168.333-.188.328-.193.154-.094.287-.18.259-.166.228-.153.435-.307.118-.087a.795.795 0 0 0 0-1.272l-.271-.198-.184-.129-.213-.145-.377-.245-.285-.179-.313-.188-.333-.192-.319-.177-.298-.158-.273-.14-.36-.176-.293-.134-.153-.068-.063-.027a.795.795 0 0 0-1.103.635Z"/></svg>