<svg xmlns="http://www.w3.org/2000/svg" width="17" height="16" fill="none" viewBox="0 0 17 16"><path fill="currentColor" d="M12.028 2.196a.667.667 0 0 1 .893-.046l.05.046 1.995 1.994.015.016.036.04.014.022a.648.648 0 0 1 .11.224c.004.017.01.034.013.052.005.027.006.053.008.08.001.014.005.028.005.042 0 .015-.004.03-.005.043-.002.026-.002.051-.007.077-.003.019-.01.037-.014.055a.639.639 0 0 1-.11.224l-.014.022-.045.051-2 2a.667.667 0 0 1-.944-.942l.863-.863h-1.724A2.667 2.667 0 0 0 8.5 8l.003.132a2.667 2.667 0 0 0 2.664 2.534h1.724l-.863-.86-.045-.052a.667.667 0 0 1 .938-.937l.05.045 2 2 .046.05.014.022a.632.632 0 0 1 .11.224c.005.018.01.036.013.054.005.026.006.052.008.078.001.014.005.029.005.044 0 .014-.004.027-.005.042-.002.026-.003.052-.008.079-.003.017-.008.033-.012.05a.666.666 0 0 1-.11.227c-.006.007-.01.016-.015.022l-.045.051-2 2a.667.667 0 0 1-.944-.943l.863-.861h-1.724a4 4 0 0 1-3.333-1.792 4 4 0 0 1-3.136 1.785l-.198.007h-2a.667.667 0 0 1 0-1.335h2l.132-.002a2.668 2.668 0 0 0 2.521-2.4L7.167 8a2.668 2.668 0 0 0-2.535-2.664L4.5 5.333h-2A.667.667 0 0 1 2.5 4h2l.198.005A4 4 0 0 1 7.833 5.79 4 4 0 0 1 11.167 4h1.725l-.864-.863-.045-.05a.666.666 0 0 1 .045-.892Z"/></svg>