<svg xmlns="http://www.w3.org/2000/svg" width="16" height="16" fill="none" viewBox="0 0 16 16"><path fill="currentColor" d="M4 12.667V4.943L2.471 6.47a.667.667 0 1 1-.942-.942l2.666-2.667.05-.044a.667.667 0 0 1 .893.044l2.667 2.667.045.05a.666.666 0 0 1-.937.938l-.051-.046-1.529-1.528v7.724a.667.667 0 1 1-1.333 0ZM11.333 2.667a.667.667 0 0 0-.666.666v7.724L9.138 9.53l-.05-.046a.666.666 0 0 0-.938.938l.045.05 2.667 2.667a.667.667 0 0 0 .943 0l2.666-2.667a.666.666 0 1 0-.942-.942L12 11.057V3.333a.667.667 0 0 0-.667-.666Z"/></svg>